# xmcd CD database file
#
# Track frame offsets:
#	150
#	19330
#	70305
#	105197
#	123945
#	161362
#	198660
#	221315
#	255937
#	273567
#	301720
#
# Disc length: 4360 seconds
#
# Revision: 0
# Processed by: cddbd v1.5PL3 Copyright (c) Steve Scherf et al.
# Submitted via: CDex 1.51
#
DISCID=8b11060b
DTITLE=Dedication Orchestra - Spirit Rejoice
DYEAR=1992
DGENRE=Jazz
TTITLE0=Traumatic experience
TTITLE1=ITHI GQI
TTITLE2=B my dear
TTITLE3=Dancing damon
TTITLE4=Hug pine
TTITLE5=Andromeda
TTITLE6=Manje
TTITLE7=Sonia
TTITLE8=Into to: You ain't ...
TTITLE9=You ain't gonna know me
TTITLE10=Woza
EXTD=YEAR: 1992
EXTT0=
EXTT1=
EXTT2=
EXTT3=
EXTT4=
EXTT5=
EXTT6=
EXTT7=
EXTT8=
EXTT9=
EXTT10=
PLAYORDER=
